<svg xmlns="http://www.w3.org/2000/svg" xmlns:xlink="http://www.w3.org/1999/xlink" width="500" zoomAndPan="magnify" viewBox="0 0 375 374.999991" height="500" preserveAspectRatio="xMidYMid meet" version="1.0"><defs><g/><clipPath id="eaef693b6e"><path d="M 26.019531 66.457031 L 63.019531 66.457031 L 63.019531 103.457031 L 26.019531 103.457031 Z M 26.019531 66.457031 " clip-rule="nonzero"/></clipPath><clipPath id="0e1a3273a2"><path d="M 26.019531 66.457031 L 62.769531 66.457031 L 62.769531 103.207031 L 26.019531 103.207031 Z M 26.019531 66.457031 " clip-rule="nonzero"/></clipPath><clipPath id="f3946faf92"><path d="M 63.019531 66.457031 L 100.019531 66.457031 L 100.019531 103.457031 L 63.019531 103.457031 Z M 63.019531 66.457031 " clip-rule="nonzero"/></clipPath><clipPath id="2af2cb3b0e"><path d="M 63.019531 66.457031 L 99.769531 66.457031 L 99.769531 103.207031 L 63.019531 103.207031 Z M 63.019531 66.457031 " clip-rule="nonzero"/></clipPath><clipPath id="55a5cde10b"><path d="M 181.851562 66.457031 L 218.851562 66.457031 L 218.851562 103.457031 L 181.851562 103.457031 Z M 181.851562 66.457031 " clip-rule="nonzero"/></clipPath><clipPath id="3467cea009"><path d="M 181.851562 66.457031 L 218.601562 66.457031 L 218.601562 103.207031 L 181.851562 103.207031 Z M 181.851562 66.457031 " clip-rule="nonzero"/></clipPath><clipPath id="8348573d3f"><path d="M 109.398438 194.683594 L 153.496094 194.683594 L 153.496094 238.78125 L 109.398438 238.78125 Z M 109.398438 194.683594 " clip-rule="nonzero"/></clipPath><clipPath id="723e74ca8a"><path d="M 131.445312 194.683594 C 119.269531 194.683594 109.398438 204.554688 109.398438 216.730469 C 109.398438 228.910156 119.269531 238.78125 131.445312 238.78125 C 143.625 238.78125 153.496094 228.910156 153.496094 216.730469 C 153.496094 204.554688 143.625 194.683594 131.445312 194.683594 " clip-rule="nonzero"/></clipPath><clipPath id="1449d4afbe"><path d="M 109.398438 194.683594 L 153.648438 194.683594 L 153.648438 238.933594 L 109.398438 238.933594 Z M 109.398438 194.683594 " clip-rule="nonzero"/></clipPath><clipPath id="624b2b18e3"><path d="M 131.523438 194.683594 C 119.304688 194.683594 109.398438 204.585938 109.398438 216.808594 C 109.398438 229.027344 119.304688 238.933594 131.523438 238.933594 C 143.742188 238.933594 153.648438 229.027344 153.648438 216.808594 C 153.648438 204.585938 143.742188 194.683594 131.523438 194.683594 " clip-rule="nonzero"/></clipPath><clipPath id="94f7d651e6"><path d="M 62.113281 267.785156 L 101.5 267.785156 L 101.5 307.175781 L 62.113281 307.175781 Z M 62.113281 267.785156 " clip-rule="nonzero"/></clipPath><clipPath id="4867687d2c"><path d="M 81.804688 267.785156 C 70.929688 267.785156 62.113281 276.605469 62.113281 287.480469 C 62.113281 298.355469 70.929688 307.175781 81.804688 307.175781 C 92.683594 307.175781 101.5 298.355469 101.5 287.480469 C 101.5 276.605469 92.683594 267.785156 81.804688 267.785156 " clip-rule="nonzero"/></clipPath><clipPath id="26858d44bf"><path d="M 62.113281 267.785156 L 101.863281 267.785156 L 101.863281 307.535156 L 62.113281 307.535156 Z M 62.113281 267.785156 " clip-rule="nonzero"/></clipPath><clipPath id="fd585362ef"><path d="M 81.988281 267.785156 C 71.011719 267.785156 62.113281 276.683594 62.113281 287.660156 C 62.113281 298.636719 71.011719 307.535156 81.988281 307.535156 C 92.964844 307.535156 101.863281 298.636719 101.863281 287.660156 C 101.863281 276.683594 92.964844 267.785156 81.988281 267.785156 " clip-rule="nonzero"/></clipPath><clipPath id="b88b7f4b63"><path d="M 153.496094 267.785156 L 192.882812 267.785156 L 192.882812 307.175781 L 153.496094 307.175781 Z M 153.496094 267.785156 " clip-rule="nonzero"/></clipPath><clipPath id="d93f68ef52"><path d="M 173.1875 267.785156 C 162.3125 267.785156 153.496094 276.605469 153.496094 287.480469 C 153.496094 298.355469 162.3125 307.175781 173.1875 307.175781 C 184.066406 307.175781 192.882812 298.355469 192.882812 287.480469 C 192.882812 276.605469 184.066406 267.785156 173.1875 267.785156 " clip-rule="nonzero"/></clipPath><clipPath id="ff73bb3834"><path d="M 153.496094 267.785156 L 193.246094 267.785156 L 193.246094 307.535156 L 153.496094 307.535156 Z M 153.496094 267.785156 " clip-rule="nonzero"/></clipPath><clipPath id="08b494df9a"><path d="M 173.371094 267.785156 C 162.394531 267.785156 153.496094 276.683594 153.496094 287.660156 C 153.496094 298.636719 162.394531 307.535156 173.371094 307.535156 C 184.347656 307.535156 193.246094 298.636719 193.246094 287.660156 C 193.246094 276.683594 184.347656 267.785156 173.371094 267.785156 " clip-rule="nonzero"/></clipPath></defs><rect x="-37.5" width="450" fill="#ffffff" y="-37.499999" height="449.999989" fill-opacity="1"/><rect x="-37.5" width="450" fill="#ffffff" y="-37.499999" height="449.999989" fill-opacity="1"/><rect x="-37.5" width="450" fill="#ffffff" y="-37.499999" height="449.999989" fill-opacity="1"/><g clip-path="url(#eaef693b6e)"><path fill="#ffffff" d="M 26.019531 66.457031 L 63.019531 66.457031 L 63.019531 103.457031 L 26.019531 103.457031 Z M 26.019531 66.457031 " fill-opacity="1" fill-rule="nonzero"/></g><g clip-path="url(#0e1a3273a2)"><path stroke-linecap="butt" transform="matrix(0.745011, 0, 0, 0.745011, 26.01874, 66.457913)" fill="none" stroke-linejoin="miter" d="M 0.00106143 -0.00118386 L 49.329187 -0.00118386 L 49.329187 49.326942 L 0.00106143 49.326942 L 0.00106143 -0.00118386 " stroke="#545454" stroke-width="6.4" stroke-opacity="1" stroke-miterlimit="4"/></g><g clip-path="url(#f3946faf92)"><path fill="#ffffff" d="M 63.019531 66.457031 L 100.019531 66.457031 L 100.019531 103.457031 L 63.019531 103.457031 Z M 63.019531 66.457031 " fill-opacity="1" fill-rule="nonzero"/></g><g clip-path="url(#2af2cb3b0e)"><path stroke-linecap="butt" transform="matrix(0.745011, 0, 0, 0.745011, 63.019695, 66.457913)" fill="none" stroke-linejoin="miter" d="M -0.000219476 -0.00118386 L 49.327907 -0.00118386 L 49.327907 49.326942 L -0.000219476 49.326942 L -0.000219476 -0.00118386 " stroke="#545454" stroke-width="6.4" stroke-opacity="1" stroke-miterlimit="4"/></g><g clip-path="url(#55a5cde10b)"><path fill="#ffffff" d="M 181.851562 66.457031 L 218.851562 66.457031 L 218.851562 103.457031 L 181.851562 103.457031 Z M 181.851562 66.457031 " fill-opacity="1" fill-rule="nonzero"/></g><g clip-path="url(#3467cea009)"><path stroke-linecap="butt" transform="matrix(0.745011, 0, 0, 0.745011, 181.850148, 66.457913)" fill="none" stroke-linejoin="miter" d="M 0.00189895 -0.00118386 L 49.330025 -0.00118386 L 49.330025 49.326942 L 0.00189895 49.326942 L 0.00189895 -0.00118386 " stroke="#545454" stroke-width="6.4" stroke-opacity="1" stroke-miterlimit="4"/></g><path fill="#545454" d="M 118.535156 83.253906 L 132.03125 83.421875 L 132.003906 85.671875 L 118.507812 85.503906 M 134.28125 83.449219 L 147.777344 83.617188 L 147.746094 85.867188 L 134.253906 85.699219 M 150.023438 83.648438 L 163.519531 83.816406 L 163.492188 86.0625 L 149.996094 85.898438 " fill-opacity="1" fill-rule="nonzero"/><path stroke-linecap="butt" transform="matrix(0.751554, 0, 0, 0.75, 291.743539, 117.792451)" fill="none" stroke-linejoin="miter" d="M -0.0017982 1.500691 L 67.86278 1.500691 " stroke="#545454" stroke-width="3" stroke-opacity="1" stroke-miterlimit="4"/><path stroke-linecap="butt" transform="matrix(0.000000000000000046, -0.752887, 0.75, 0.000000000000000046, 290.082965, 119.692903)" fill="none" stroke-linejoin="miter" d="M 0.0019874 1.498756 L 109.590501 1.498756 " stroke="#545454" stroke-width="3" stroke-opacity="1" stroke-miterlimit="4"/><path stroke-linecap="butt" transform="matrix(0.00783694, 0.751046, -0.749959, 0.0078256, 341.531084, 37.497386)" fill="none" stroke-linejoin="miter" d="M -0.00174558 1.499843 L 107.858253 1.501899 " stroke="#545454" stroke-width="3" stroke-opacity="1" stroke-miterlimit="4"/><g fill="#000000" fill-opacity="1"><g transform="translate(95.542293, 138.320892)"><g><path d="M 3.859375 -2.890625 C 3.859375 -2.421875 3.878906 -2.039062 3.921875 -1.75 C 3.960938 -1.46875 4.039062 -1.242188 4.15625 -1.078125 C 4.269531 -0.921875 4.429688 -0.8125 4.640625 -0.75 C 4.859375 -0.695312 5.148438 -0.660156 5.515625 -0.640625 L 5.515625 0 L 0.40625 0 L 0.40625 -0.640625 C 0.78125 -0.660156 1.078125 -0.703125 1.296875 -0.765625 C 1.515625 -0.835938 1.6875 -0.945312 1.8125 -1.09375 C 1.945312 -1.238281 2.035156 -1.441406 2.078125 -1.703125 C 2.117188 -1.972656 2.140625 -2.320312 2.140625 -2.75 L 2.140625 -10.734375 C 2.140625 -11.398438 2.128906 -11.957031 2.109375 -12.40625 C 2.097656 -12.851562 2.070312 -13.15625 2.03125 -13.3125 C 1.96875 -13.601562 1.820312 -13.796875 1.59375 -13.890625 C 1.375 -13.992188 0.96875 -14.046875 0.375 -14.046875 L 0.375 -14.671875 L 3.859375 -15.359375 Z M 3.859375 -2.890625 "/></g></g></g><g fill="#000000" fill-opacity="1"><g transform="translate(101.549079, 138.320892)"><g><path d="M 4.21875 -2.9375 C 4.21875 -2.457031 4.238281 -2.070312 4.28125 -1.78125 C 4.320312 -1.488281 4.40625 -1.257812 4.53125 -1.09375 C 4.65625 -0.925781 4.828125 -0.8125 5.046875 -0.75 C 5.273438 -0.695312 5.570312 -0.660156 5.9375 -0.640625 L 5.9375 0 L 0.625 0 L 0.625 -0.640625 C 1 -0.660156 1.300781 -0.703125 1.53125 -0.765625 C 1.769531 -0.835938 1.953125 -0.945312 2.078125 -1.09375 C 2.210938 -1.25 2.300781 -1.46875 2.34375 -1.75 C 2.382812 -2.03125 2.40625 -2.382812 2.40625 -2.8125 L 2.40625 -5.1875 C 2.40625 -5.894531 2.394531 -6.476562 2.375 -6.9375 C 2.351562 -7.40625 2.320312 -7.726562 2.28125 -7.90625 C 2.21875 -8.1875 2.070312 -8.378906 1.84375 -8.484375 C 1.625 -8.585938 1.207031 -8.640625 0.59375 -8.640625 L 0.59375 -9.28125 L 4.21875 -9.984375 Z M 2.09375 -13.75 C 2.09375 -14.070312 2.203125 -14.34375 2.421875 -14.5625 C 2.640625 -14.78125 2.910156 -14.890625 3.234375 -14.890625 C 3.554688 -14.890625 3.828125 -14.78125 4.046875 -14.5625 C 4.273438 -14.34375 4.390625 -14.070312 4.390625 -13.75 C 4.390625 -13.425781 4.273438 -13.148438 4.046875 -12.921875 C 3.828125 -12.703125 3.554688 -12.59375 3.234375 -12.59375 C 2.910156 -12.59375 2.640625 -12.703125 2.421875 -12.921875 C 2.203125 -13.148438 2.09375 -13.425781 2.09375 -13.75 Z M 2.09375 -13.75 "/></g></g></g><g fill="#000000" fill-opacity="1"><g transform="translate(107.851584, 138.320892)"><g><path d="M 4 -2.90625 C 4 -2.394531 4.007812 -1.992188 4.03125 -1.703125 C 4.050781 -1.421875 4.113281 -1.203125 4.21875 -1.046875 C 4.332031 -0.890625 4.488281 -0.785156 4.6875 -0.734375 C 4.894531 -0.691406 5.175781 -0.65625 5.53125 -0.625 L 5.53125 0 L 0.6875 0 L 0.6875 -0.625 C 1.03125 -0.65625 1.300781 -0.691406 1.5 -0.734375 C 1.707031 -0.785156 1.863281 -0.882812 1.96875 -1.03125 C 2.082031 -1.1875 2.15625 -1.398438 2.1875 -1.671875 C 2.21875 -1.941406 2.234375 -2.3125 2.234375 -2.78125 L 2.234375 -5.234375 C 2.234375 -6.703125 2.195312 -7.597656 2.125 -7.921875 C 2.09375 -8.078125 2.046875 -8.207031 1.984375 -8.3125 C 1.929688 -8.414062 1.847656 -8.492188 1.734375 -8.546875 C 1.628906 -8.609375 1.488281 -8.644531 1.3125 -8.65625 C 1.132812 -8.675781 0.910156 -8.6875 0.640625 -8.6875 L 0.640625 -9.28125 L 3.609375 -9.984375 L 3.828125 -8.15625 L 3.90625 -8.15625 C 4.375 -8.738281 4.921875 -9.1875 5.546875 -9.5 C 6.179688 -9.820312 6.867188 -9.984375 7.609375 -9.984375 C 8.171875 -9.984375 8.6875 -9.890625 9.15625 -9.703125 C 9.625 -9.523438 9.984375 -9.273438 10.234375 -8.953125 C 10.441406 -8.671875 10.585938 -8.300781 10.671875 -7.84375 C 10.753906 -7.394531 10.796875 -6.78125 10.796875 -6 L 10.796875 -2.90625 C 10.796875 -2.394531 10.8125 -1.992188 10.84375 -1.703125 C 10.875 -1.421875 10.9375 -1.203125 11.03125 -1.046875 C 11.132812 -0.890625 11.285156 -0.785156 11.484375 -0.734375 C 11.691406 -0.691406 11.960938 -0.65625 12.296875 -0.625 L 12.296875 0 L 7.515625 0 L 7.515625 -0.625 C 7.859375 -0.632812 8.128906 -0.664062 8.328125 -0.71875 C 8.535156 -0.78125 8.691406 -0.882812 8.796875 -1.03125 C 8.898438 -1.1875 8.96875 -1.398438 9 -1.671875 C 9.03125 -1.953125 9.046875 -2.320312 9.046875 -2.78125 L 9.046875 -5.21875 C 9.046875 -5.914062 9.007812 -6.503906 8.9375 -6.984375 C 8.863281 -7.472656 8.742188 -7.863281 8.578125 -8.15625 C 8.410156 -8.457031 8.191406 -8.671875 7.921875 -8.796875 C 7.648438 -8.921875 7.320312 -8.984375 6.9375 -8.984375 C 6.382812 -8.984375 5.875 -8.835938 5.40625 -8.546875 C 4.945312 -8.265625 4.585938 -7.867188 4.328125 -7.359375 C 4.265625 -7.234375 4.210938 -7.113281 4.171875 -7 C 4.128906 -6.894531 4.09375 -6.769531 4.0625 -6.625 C 4.039062 -6.476562 4.023438 -6.304688 4.015625 -6.109375 C 4.003906 -5.921875 4 -5.679688 4 -5.390625 Z M 4 -2.90625 "/></g></g></g><g fill="#000000" fill-opacity="1"><g transform="translate(120.585947, 138.320892)"><g><path d="M 6.4375 -0.640625 C 6.84375 -0.640625 7.125 -0.660156 7.28125 -0.703125 C 7.4375 -0.742188 7.515625 -0.789062 7.515625 -0.84375 C 7.503906 -0.945312 7.40625 -1.128906 7.21875 -1.390625 C 7.03125 -1.648438 6.789062 -1.957031 6.5 -2.3125 L 4.53125 -4.6875 L 3.84375 -4.03125 L 3.84375 -2.9375 C 3.84375 -2.457031 3.863281 -2.070312 3.90625 -1.78125 C 3.957031 -1.488281 4.039062 -1.257812 4.15625 -1.09375 C 4.269531 -0.925781 4.441406 -0.8125 4.671875 -0.75 C 4.898438 -0.695312 5.195312 -0.660156 5.5625 -0.640625 L 5.5625 0 L 0.3125 0 L 0.3125 -0.640625 C 0.6875 -0.660156 0.984375 -0.695312 1.203125 -0.75 C 1.429688 -0.8125 1.609375 -0.921875 1.734375 -1.078125 C 1.867188 -1.242188 1.960938 -1.460938 2.015625 -1.734375 C 2.066406 -2.003906 2.09375 -2.363281 2.09375 -2.8125 L 2.09375 -10.5625 C 2.09375 -11.5 2.082031 -12.207031 2.0625 -12.6875 C 2.039062 -13.164062 1.976562 -13.492188 1.875 -13.671875 C 1.757812 -13.847656 1.570312 -13.945312 1.3125 -13.96875 C 1.050781 -14 0.707031 -14.015625 0.28125 -14.015625 L 0.28125 -14.65625 L 3.84375 -15.359375 L 3.84375 -5.203125 L 5.5625 -6.875 C 6.125 -7.4375 6.539062 -7.847656 6.8125 -8.109375 C 7.082031 -8.378906 7.21875 -8.582031 7.21875 -8.71875 C 7.21875 -8.851562 7.085938 -8.957031 6.828125 -9.03125 C 6.566406 -9.113281 6.195312 -9.15625 5.71875 -9.15625 L 5.71875 -9.8125 L 10.53125 -9.8125 L 10.53125 -9.15625 C 10.289062 -9.15625 10.082031 -9.140625 9.90625 -9.109375 C 9.738281 -9.085938 9.578125 -9.039062 9.421875 -8.96875 C 9.265625 -8.894531 9.097656 -8.789062 8.921875 -8.65625 C 8.753906 -8.53125 8.5625 -8.367188 8.34375 -8.171875 L 5.671875 -5.8125 L 9.34375 -1.671875 C 9.507812 -1.453125 9.664062 -1.28125 9.8125 -1.15625 C 9.957031 -1.03125 10.097656 -0.925781 10.234375 -0.84375 C 10.378906 -0.769531 10.535156 -0.71875 10.703125 -0.6875 C 10.867188 -0.65625 11.066406 -0.640625 11.296875 -0.640625 L 11.296875 0 L 6.4375 0 Z M 6.4375 -0.640625 "/></g></g></g><g fill="#000000" fill-opacity="1"><g transform="translate(131.971111, 138.320892)"><g><path d="M 9.65625 -1.71875 C 8.601562 -0.445312 7.300781 0.1875 5.75 0.1875 C 5.019531 0.1875 4.359375 0.0664062 3.765625 -0.171875 C 3.179688 -0.410156 2.675781 -0.75 2.25 -1.1875 C 1.820312 -1.625 1.488281 -2.148438 1.25 -2.765625 C 1.019531 -3.378906 0.90625 -4.054688 0.90625 -4.796875 C 0.90625 -5.546875 1.023438 -6.238281 1.265625 -6.875 C 1.515625 -7.519531 1.863281 -8.070312 2.3125 -8.53125 C 2.769531 -8.988281 3.304688 -9.34375 3.921875 -9.59375 C 4.546875 -9.851562 5.226562 -9.984375 5.96875 -9.984375 C 7.164062 -9.984375 8.09375 -9.660156 8.75 -9.015625 C 9.40625 -8.367188 9.734375 -7.441406 9.734375 -6.234375 C 9.734375 -6.054688 9.695312 -5.945312 9.625 -5.90625 C 9.5625 -5.875 9.40625 -5.859375 9.15625 -5.859375 L 3.078125 -5.859375 C 3.046875 -5.765625 3.023438 -5.644531 3.015625 -5.5 C 3.003906 -5.363281 3 -5.207031 3 -5.03125 C 3 -4.382812 3.070312 -3.800781 3.21875 -3.28125 C 3.375 -2.757812 3.597656 -2.3125 3.890625 -1.9375 C 4.179688 -1.570312 4.523438 -1.285156 4.921875 -1.078125 C 5.328125 -0.878906 5.773438 -0.78125 6.265625 -0.78125 C 6.785156 -0.78125 7.265625 -0.894531 7.703125 -1.125 C 8.148438 -1.351562 8.609375 -1.722656 9.078125 -2.234375 Z M 6.609375 -6.71875 C 6.847656 -6.71875 7.039062 -6.722656 7.1875 -6.734375 C 7.34375 -6.742188 7.457031 -6.765625 7.53125 -6.796875 C 7.601562 -6.835938 7.648438 -6.890625 7.671875 -6.953125 C 7.703125 -7.023438 7.71875 -7.117188 7.71875 -7.234375 C 7.71875 -7.796875 7.535156 -8.25 7.171875 -8.59375 C 6.804688 -8.9375 6.304688 -9.109375 5.671875 -9.109375 C 4.347656 -9.109375 3.523438 -8.3125 3.203125 -6.71875 Z M 6.609375 -6.71875 "/></g></g></g><g fill="#000000" fill-opacity="1"><g transform="translate(142.561521, 138.320892)"><g><path d="M 8.953125 -1.546875 L 8.875 -1.546875 C 8.4375 -0.921875 7.96875 -0.472656 7.46875 -0.203125 C 6.96875 0.0546875 6.378906 0.1875 5.703125 0.1875 C 4.992188 0.1875 4.347656 0.0625 3.765625 -0.1875 C 3.179688 -0.445312 2.675781 -0.800781 2.25 -1.25 C 1.820312 -1.695312 1.488281 -2.234375 1.25 -2.859375 C 1.007812 -3.492188 0.890625 -4.179688 0.890625 -4.921875 C 0.890625 -5.648438 1.007812 -6.320312 1.25 -6.9375 C 1.488281 -7.5625 1.820312 -8.097656 2.25 -8.546875 C 2.675781 -9.003906 3.179688 -9.359375 3.765625 -9.609375 C 4.359375 -9.859375 5.003906 -9.984375 5.703125 -9.984375 C 6.296875 -9.984375 6.820312 -9.882812 7.28125 -9.6875 C 7.738281 -9.488281 8.1875 -9.175781 8.625 -8.75 L 8.625 -10.640625 C 8.625 -11.335938 8.613281 -11.921875 8.59375 -12.390625 C 8.570312 -12.859375 8.546875 -13.179688 8.515625 -13.359375 C 8.453125 -13.628906 8.273438 -13.816406 7.984375 -13.921875 C 7.703125 -14.035156 7.242188 -14.09375 6.609375 -14.09375 L 6.609375 -14.65625 L 10.390625 -15.359375 L 10.390625 -4.6875 C 10.390625 -3.832031 10.394531 -3.128906 10.40625 -2.578125 C 10.425781 -2.023438 10.46875 -1.632812 10.53125 -1.40625 C 10.5625 -1.257812 10.601562 -1.132812 10.65625 -1.03125 C 10.71875 -0.9375 10.800781 -0.859375 10.90625 -0.796875 C 11.007812 -0.742188 11.148438 -0.703125 11.328125 -0.671875 C 11.503906 -0.648438 11.738281 -0.640625 12.03125 -0.640625 L 12.03125 -0.015625 L 8.953125 0.1875 Z M 8.578125 -5.640625 C 8.578125 -6.285156 8.539062 -6.773438 8.46875 -7.109375 C 8.40625 -7.441406 8.273438 -7.726562 8.078125 -7.96875 C 7.796875 -8.34375 7.4375 -8.625 7 -8.8125 C 6.5625 -9.007812 6.128906 -9.109375 5.703125 -9.109375 C 4.804688 -9.109375 4.128906 -8.738281 3.671875 -8 C 3.210938 -7.269531 2.984375 -6.273438 2.984375 -5.015625 C 2.984375 -4.359375 3.039062 -3.765625 3.15625 -3.234375 C 3.269531 -2.703125 3.441406 -2.25 3.671875 -1.875 C 3.898438 -1.5 4.179688 -1.207031 4.515625 -1 C 4.859375 -0.800781 5.253906 -0.703125 5.703125 -0.703125 C 5.921875 -0.703125 6.144531 -0.722656 6.375 -0.765625 C 6.601562 -0.816406 6.820312 -0.894531 7.03125 -1 C 7.25 -1.113281 7.453125 -1.238281 7.640625 -1.375 C 7.828125 -1.519531 7.984375 -1.6875 8.109375 -1.875 C 8.273438 -2.144531 8.394531 -2.46875 8.46875 -2.84375 C 8.539062 -3.226562 8.578125 -3.753906 8.578125 -4.421875 Z M 8.578125 -5.640625 "/></g></g></g><g fill="#000000" fill-opacity="1"><g transform="translate(155.037138, 138.320892)"><g/></g></g><g fill="#000000" fill-opacity="1"><g transform="translate(160.341591, 138.320892)"><g><path d="M 3.859375 -2.890625 C 3.859375 -2.421875 3.878906 -2.039062 3.921875 -1.75 C 3.960938 -1.46875 4.039062 -1.242188 4.15625 -1.078125 C 4.269531 -0.921875 4.429688 -0.8125 4.640625 -0.75 C 4.859375 -0.695312 5.148438 -0.660156 5.515625 -0.640625 L 5.515625 0 L 0.40625 0 L 0.40625 -0.640625 C 0.78125 -0.660156 1.078125 -0.703125 1.296875 -0.765625 C 1.515625 -0.835938 1.6875 -0.945312 1.8125 -1.09375 C 1.945312 -1.238281 2.035156 -1.441406 2.078125 -1.703125 C 2.117188 -1.972656 2.140625 -2.320312 2.140625 -2.75 L 2.140625 -10.734375 C 2.140625 -11.398438 2.128906 -11.957031 2.109375 -12.40625 C 2.097656 -12.851562 2.070312 -13.15625 2.03125 -13.3125 C 1.96875 -13.601562 1.820312 -13.796875 1.59375 -13.890625 C 1.375 -13.992188 0.96875 -14.046875 0.375 -14.046875 L 0.375 -14.671875 L 3.859375 -15.359375 Z M 3.859375 -2.890625 "/></g></g></g><g fill="#000000" fill-opacity="1"><g transform="translate(166.348377, 138.320892)"><g><path d="M 4.21875 -2.9375 C 4.21875 -2.457031 4.238281 -2.070312 4.28125 -1.78125 C 4.320312 -1.488281 4.40625 -1.257812 4.53125 -1.09375 C 4.65625 -0.925781 4.828125 -0.8125 5.046875 -0.75 C 5.273438 -0.695312 5.570312 -0.660156 5.9375 -0.640625 L 5.9375 0 L 0.625 0 L 0.625 -0.640625 C 1 -0.660156 1.300781 -0.703125 1.53125 -0.765625 C 1.769531 -0.835938 1.953125 -0.945312 2.078125 -1.09375 C 2.210938 -1.25 2.300781 -1.46875 2.34375 -1.75 C 2.382812 -2.03125 2.40625 -2.382812 2.40625 -2.8125 L 2.40625 -5.1875 C 2.40625 -5.894531 2.394531 -6.476562 2.375 -6.9375 C 2.351562 -7.40625 2.320312 -7.726562 2.28125 -7.90625 C 2.21875 -8.1875 2.070312 -8.378906 1.84375 -8.484375 C 1.625 -8.585938 1.207031 -8.640625 0.59375 -8.640625 L 0.59375 -9.28125 L 4.21875 -9.984375 Z M 2.09375 -13.75 C 2.09375 -14.070312 2.203125 -14.34375 2.421875 -14.5625 C 2.640625 -14.78125 2.910156 -14.890625 3.234375 -14.890625 C 3.554688 -14.890625 3.828125 -14.78125 4.046875 -14.5625 C 4.273438 -14.34375 4.390625 -14.070312 4.390625 -13.75 C 4.390625 -13.425781 4.273438 -13.148438 4.046875 -12.921875 C 3.828125 -12.703125 3.554688 -12.59375 3.234375 -12.59375 C 2.910156 -12.59375 2.640625 -12.703125 2.421875 -12.921875 C 2.203125 -13.148438 2.09375 -13.425781 2.09375 -13.75 Z M 2.09375 -13.75 "/></g></g></g><g fill="#000000" fill-opacity="1"><g transform="translate(172.650882, 138.320892)"><g><path d="M 1.59375 0 L 1.1875 0 L 1.1875 -3.1875 L 1.640625 -3.1875 C 2.128906 -1.445312 3.007812 -0.578125 4.28125 -0.578125 C 4.769531 -0.578125 5.160156 -0.695312 5.453125 -0.9375 C 5.742188 -1.175781 5.890625 -1.539062 5.890625 -2.03125 C 5.890625 -2.21875 5.859375 -2.375 5.796875 -2.5 C 5.742188 -2.632812 5.640625 -2.769531 5.484375 -2.90625 C 5.328125 -3.050781 5.109375 -3.21875 4.828125 -3.40625 C 4.554688 -3.59375 4.191406 -3.828125 3.734375 -4.109375 C 3.316406 -4.367188 2.953125 -4.609375 2.640625 -4.828125 C 2.335938 -5.046875 2.078125 -5.269531 1.859375 -5.5 C 1.648438 -5.726562 1.492188 -5.972656 1.390625 -6.234375 C 1.285156 -6.492188 1.234375 -6.796875 1.234375 -7.140625 C 1.234375 -7.554688 1.304688 -7.941406 1.453125 -8.296875 C 1.597656 -8.648438 1.789062 -8.945312 2.03125 -9.1875 C 2.28125 -9.4375 2.570312 -9.628906 2.90625 -9.765625 C 3.238281 -9.910156 3.601562 -9.984375 4 -9.984375 C 4.332031 -9.984375 4.675781 -9.929688 5.03125 -9.828125 C 5.382812 -9.722656 5.695312 -9.585938 5.96875 -9.421875 L 6.34375 -9.8125 L 6.703125 -9.8125 L 6.703125 -7.140625 L 6.21875 -7.140625 C 5.945312 -7.890625 5.648438 -8.425781 5.328125 -8.75 C 5.003906 -9.070312 4.609375 -9.234375 4.140625 -9.234375 C 3.722656 -9.234375 3.382812 -9.117188 3.125 -8.890625 C 2.875 -8.671875 2.75 -8.363281 2.75 -7.96875 C 2.75 -7.757812 2.78125 -7.578125 2.84375 -7.421875 C 2.914062 -7.273438 3.023438 -7.125 3.171875 -6.96875 C 3.328125 -6.820312 3.519531 -6.671875 3.75 -6.515625 C 3.976562 -6.367188 4.25 -6.195312 4.5625 -6 C 5.09375 -5.664062 5.546875 -5.367188 5.921875 -5.109375 C 6.304688 -4.847656 6.613281 -4.585938 6.84375 -4.328125 C 7.082031 -4.078125 7.253906 -3.816406 7.359375 -3.546875 C 7.472656 -3.273438 7.53125 -2.96875 7.53125 -2.625 C 7.53125 -1.75 7.242188 -1.0625 6.671875 -0.5625 C 6.109375 -0.0625 5.363281 0.1875 4.4375 0.1875 C 3.476562 0.1875 2.65625 -0.0859375 1.96875 -0.640625 Z M 1.59375 0 "/></g></g></g><g fill="#000000" fill-opacity="1"><g transform="translate(181.041891, 138.320892)"><g><path d="M 0.734375 -8.640625 L 0.734375 -9.328125 C 1.390625 -9.703125 1.898438 -10.082031 2.265625 -10.46875 C 2.640625 -10.851562 2.925781 -11.3125 3.125 -11.84375 L 3.65625 -11.84375 L 3.65625 -9.515625 L 6.140625 -9.515625 L 6.140625 -8.640625 L 3.65625 -8.640625 L 3.65625 -3.015625 C 3.65625 -2.585938 3.675781 -2.222656 3.71875 -1.921875 C 3.769531 -1.628906 3.84375 -1.390625 3.9375 -1.203125 C 4.039062 -1.023438 4.171875 -0.898438 4.328125 -0.828125 C 4.484375 -0.753906 4.6875 -0.71875 4.9375 -0.71875 C 5.25 -0.71875 5.507812 -0.78125 5.71875 -0.90625 C 5.9375 -1.039062 6.148438 -1.265625 6.359375 -1.578125 L 6.828125 -1.21875 C 6.648438 -0.757812 6.347656 -0.410156 5.921875 -0.171875 C 5.503906 0.0664062 4.976562 0.1875 4.34375 0.1875 C 3.53125 0.1875 2.910156 -0.00390625 2.484375 -0.390625 C 2.054688 -0.785156 1.84375 -1.347656 1.84375 -2.078125 L 1.84375 -8.640625 Z M 0.734375 -8.640625 "/></g></g></g><g fill="#000000" fill-opacity="1"><g transform="translate(290.408481, 137.233047)"><g><path d="M 1.75 0 L 1.296875 0 L 1.296875 -3.5 L 1.8125 -3.5 C 2.34375 -1.582031 3.304688 -0.625 4.703125 -0.625 C 5.242188 -0.625 5.671875 -0.753906 5.984375 -1.015625 C 6.304688 -1.285156 6.46875 -1.691406 6.46875 -2.234375 C 6.46875 -2.441406 6.4375 -2.613281 6.375 -2.75 C 6.3125 -2.894531 6.195312 -3.046875 6.03125 -3.203125 C 5.863281 -3.359375 5.625 -3.535156 5.3125 -3.734375 C 5.007812 -3.941406 4.609375 -4.203125 4.109375 -4.515625 C 3.648438 -4.796875 3.25 -5.054688 2.90625 -5.296875 C 2.570312 -5.546875 2.285156 -5.796875 2.046875 -6.046875 C 1.816406 -6.296875 1.644531 -6.5625 1.53125 -6.84375 C 1.414062 -7.132812 1.359375 -7.472656 1.359375 -7.859375 C 1.359375 -8.316406 1.4375 -8.738281 1.59375 -9.125 C 1.75 -9.507812 1.960938 -9.835938 2.234375 -10.109375 C 2.503906 -10.378906 2.820312 -10.59375 3.1875 -10.75 C 3.5625 -10.90625 3.960938 -10.984375 4.390625 -10.984375 C 4.753906 -10.984375 5.132812 -10.925781 5.53125 -10.8125 C 5.925781 -10.695312 6.273438 -10.546875 6.578125 -10.359375 L 6.984375 -10.78125 L 7.359375 -10.78125 L 7.359375 -7.859375 L 6.828125 -7.859375 C 6.535156 -8.679688 6.210938 -9.269531 5.859375 -9.625 C 5.503906 -9.976562 5.070312 -10.15625 4.5625 -10.15625 C 4.09375 -10.15625 3.71875 -10.03125 3.4375 -9.78125 C 3.164062 -9.539062 3.03125 -9.203125 3.03125 -8.765625 C 3.03125 -8.535156 3.066406 -8.332031 3.140625 -8.15625 C 3.210938 -7.988281 3.332031 -7.820312 3.5 -7.65625 C 3.664062 -7.5 3.875 -7.335938 4.125 -7.171875 C 4.375 -7.003906 4.675781 -6.8125 5.03125 -6.59375 C 5.613281 -6.226562 6.109375 -5.898438 6.515625 -5.609375 C 6.929688 -5.328125 7.265625 -5.046875 7.515625 -4.765625 C 7.773438 -4.492188 7.96875 -4.207031 8.09375 -3.90625 C 8.21875 -3.601562 8.28125 -3.265625 8.28125 -2.890625 C 8.28125 -1.921875 7.96875 -1.160156 7.34375 -0.609375 C 6.71875 -0.0664062 5.894531 0.203125 4.875 0.203125 C 3.820312 0.203125 2.914062 -0.101562 2.15625 -0.71875 Z M 1.75 0 "/></g></g></g><g fill="#000000" fill-opacity="1"><g transform="translate(299.647694, 137.233047)"><g><path d="M 0.8125 -9.5 L 0.8125 -10.25 C 1.53125 -10.675781 2.09375 -11.097656 2.5 -11.515625 C 2.90625 -11.929688 3.21875 -12.429688 3.4375 -13.015625 L 4.03125 -13.015625 L 4.03125 -10.453125 L 6.75 -10.453125 L 6.75 -9.5 L 4.03125 -9.5 L 4.03125 -3.3125 C 4.03125 -2.84375 4.050781 -2.441406 4.09375 -2.109375 C 4.144531 -1.785156 4.222656 -1.523438 4.328125 -1.328125 C 4.441406 -1.128906 4.585938 -0.988281 4.765625 -0.90625 C 4.941406 -0.832031 5.164062 -0.796875 5.4375 -0.796875 C 5.769531 -0.796875 6.054688 -0.863281 6.296875 -1 C 6.535156 -1.144531 6.769531 -1.390625 7 -1.734375 L 7.5 -1.34375 C 7.3125 -0.84375 6.984375 -0.457031 6.515625 -0.1875 C 6.046875 0.0703125 5.46875 0.203125 4.78125 0.203125 C 3.882812 0.203125 3.203125 -0.0078125 2.734375 -0.4375 C 2.265625 -0.863281 2.03125 -1.476562 2.03125 -2.28125 L 2.03125 -9.5 Z M 0.8125 -9.5 "/></g></g></g><g fill="#000000" fill-opacity="1"><g transform="translate(307.34027, 137.233047)"><g><path d="M 7.09375 -6.015625 C 6.320312 -5.722656 5.664062 -5.429688 5.125 -5.140625 C 4.59375 -4.859375 4.164062 -4.570312 3.84375 -4.28125 C 3.519531 -4 3.285156 -3.71875 3.140625 -3.4375 C 2.992188 -3.15625 2.921875 -2.863281 2.921875 -2.5625 C 2.921875 -2.113281 3.070312 -1.742188 3.375 -1.453125 C 3.675781 -1.171875 4.070312 -1.03125 4.5625 -1.03125 C 4.914062 -1.03125 5.242188 -1.117188 5.546875 -1.296875 C 5.847656 -1.472656 6.113281 -1.710938 6.34375 -2.015625 C 6.570312 -2.328125 6.753906 -2.6875 6.890625 -3.09375 C 7.023438 -3.507812 7.09375 -3.953125 7.09375 -4.421875 Z M 7.09375 -6.890625 L 7.09375 -7.734375 C 7.09375 -9.390625 6.390625 -10.21875 4.984375 -10.21875 C 4.753906 -10.21875 4.554688 -10.195312 4.390625 -10.15625 C 4.234375 -10.113281 4.097656 -10.046875 3.984375 -9.953125 C 3.878906 -9.859375 3.78125 -9.722656 3.6875 -9.546875 C 3.601562 -9.367188 3.519531 -9.148438 3.4375 -8.890625 C 3.289062 -8.492188 3.144531 -8.226562 3 -8.09375 C 2.851562 -7.96875 2.644531 -7.90625 2.375 -7.90625 C 1.695312 -7.90625 1.359375 -8.25 1.359375 -8.9375 C 1.359375 -9.582031 1.703125 -10.082031 2.390625 -10.4375 C 3.085938 -10.800781 4.070312 -10.984375 5.34375 -10.984375 C 6.707031 -10.984375 7.671875 -10.742188 8.234375 -10.265625 C 8.804688 -9.785156 9.09375 -8.96875 9.09375 -7.8125 L 9.09375 -3.25 C 9.09375 -1.707031 9.398438 -0.9375 10.015625 -0.9375 C 10.203125 -0.9375 10.382812 -0.957031 10.5625 -1 C 10.738281 -1.050781 10.882812 -1.179688 11 -1.390625 L 11.296875 -0.890625 C 11.128906 -0.578125 10.828125 -0.316406 10.390625 -0.109375 C 9.960938 0.0976562 9.507812 0.203125 9.03125 0.203125 C 8.4375 0.203125 7.992188 0.015625 7.703125 -0.359375 C 7.410156 -0.742188 7.265625 -1.28125 7.265625 -1.96875 L 7.15625 -1.96875 C 6.800781 -1.300781 6.3125 -0.773438 5.6875 -0.390625 C 5.070312 -0.00390625 4.382812 0.1875 3.625 0.1875 C 2.769531 0.1875 2.097656 -0.03125 1.609375 -0.46875 C 1.117188 -0.90625 0.875 -1.488281 0.875 -2.21875 C 0.875 -2.539062 0.929688 -2.847656 1.046875 -3.140625 C 1.160156 -3.441406 1.347656 -3.726562 1.609375 -4 C 1.867188 -4.28125 2.207031 -4.550781 2.625 -4.8125 C 3.039062 -5.070312 3.554688 -5.335938 4.171875 -5.609375 Z M 7.09375 -6.890625 "/></g></g></g><g fill="#000000" fill-opacity="1"><g transform="translate(318.614557, 137.233047)"><g><path d="M 10.296875 -1.6875 C 9.804688 -1.09375 9.175781 -0.628906 8.40625 -0.296875 C 7.632812 0.0351562 6.800781 0.203125 5.90625 0.203125 C 5.1875 0.203125 4.523438 0.0703125 3.921875 -0.1875 C 3.316406 -0.457031 2.796875 -0.832031 2.359375 -1.3125 C 1.921875 -1.789062 1.582031 -2.367188 1.34375 -3.046875 C 1.113281 -3.722656 1 -4.476562 1 -5.3125 C 1 -6.175781 1.132812 -6.957031 1.40625 -7.65625 C 1.675781 -8.351562 2.054688 -8.945312 2.546875 -9.4375 C 3.046875 -9.9375 3.644531 -10.316406 4.34375 -10.578125 C 5.039062 -10.847656 5.8125 -10.984375 6.65625 -10.984375 C 7.1875 -10.984375 7.664062 -10.9375 8.09375 -10.84375 C 8.53125 -10.757812 8.90625 -10.640625 9.21875 -10.484375 C 9.539062 -10.328125 9.789062 -10.132812 9.96875 -9.90625 C 10.144531 -9.6875 10.234375 -9.453125 10.234375 -9.203125 C 10.234375 -8.921875 10.144531 -8.707031 9.96875 -8.5625 C 9.789062 -8.414062 9.546875 -8.34375 9.234375 -8.34375 C 8.992188 -8.34375 8.789062 -8.390625 8.625 -8.484375 C 8.457031 -8.585938 8.25 -8.816406 8 -9.171875 C 7.726562 -9.484375 7.460938 -9.703125 7.203125 -9.828125 C 6.953125 -9.960938 6.632812 -10.03125 6.25 -10.03125 C 5.28125 -10.03125 4.546875 -9.65625 4.046875 -8.90625 C 3.554688 -8.164062 3.3125 -7.066406 3.3125 -5.609375 C 3.3125 -4.054688 3.585938 -2.875 4.140625 -2.0625 C 4.691406 -1.257812 5.492188 -0.859375 6.546875 -0.859375 C 7.117188 -0.859375 7.65625 -0.96875 8.15625 -1.1875 C 8.65625 -1.414062 9.164062 -1.78125 9.6875 -2.28125 Z M 10.296875 -1.6875 "/></g></g></g><g fill="#000000" fill-opacity="1"><g transform="translate(329.522539, 137.233047)"><g><path d="M 7.078125 -0.71875 C 7.523438 -0.71875 7.832031 -0.734375 8 -0.765625 C 8.175781 -0.804688 8.265625 -0.863281 8.265625 -0.9375 C 8.242188 -1.039062 8.128906 -1.234375 7.921875 -1.515625 C 7.722656 -1.804688 7.460938 -2.148438 7.140625 -2.546875 L 4.984375 -5.140625 L 4.234375 -4.4375 L 4.234375 -3.234375 C 4.234375 -2.703125 4.253906 -2.273438 4.296875 -1.953125 C 4.347656 -1.640625 4.4375 -1.390625 4.5625 -1.203125 C 4.695312 -1.023438 4.890625 -0.898438 5.140625 -0.828125 C 5.390625 -0.765625 5.71875 -0.726562 6.125 -0.71875 L 6.125 0 L 0.34375 0 L 0.34375 -0.71875 C 0.75 -0.726562 1.078125 -0.765625 1.328125 -0.828125 C 1.578125 -0.898438 1.773438 -1.023438 1.921875 -1.203125 C 2.066406 -1.378906 2.164062 -1.613281 2.21875 -1.90625 C 2.269531 -2.207031 2.296875 -2.601562 2.296875 -3.09375 L 2.296875 -11.609375 C 2.296875 -12.640625 2.285156 -13.421875 2.265625 -13.953125 C 2.242188 -14.484375 2.175781 -14.84375 2.0625 -15.03125 C 1.9375 -15.21875 1.726562 -15.328125 1.4375 -15.359375 C 1.15625 -15.398438 0.78125 -15.421875 0.3125 -15.421875 L 0.3125 -16.109375 L 4.234375 -16.890625 L 4.234375 -5.71875 L 6.125 -7.5625 C 6.726562 -8.175781 7.179688 -8.628906 7.484375 -8.921875 C 7.785156 -9.210938 7.9375 -9.429688 7.9375 -9.578125 C 7.9375 -9.734375 7.789062 -9.851562 7.5 -9.9375 C 7.21875 -10.019531 6.8125 -10.0625 6.28125 -10.0625 L 6.28125 -10.78125 L 11.578125 -10.78125 L 11.578125 -10.0625 C 11.316406 -10.0625 11.09375 -10.046875 10.90625 -10.015625 C 10.71875 -9.992188 10.535156 -9.941406 10.359375 -9.859375 C 10.191406 -9.785156 10.015625 -9.675781 9.828125 -9.53125 C 9.640625 -9.382812 9.421875 -9.203125 9.171875 -8.984375 L 6.25 -6.390625 L 10.28125 -1.828125 C 10.46875 -1.597656 10.640625 -1.410156 10.796875 -1.265625 C 10.953125 -1.128906 11.109375 -1.019531 11.265625 -0.9375 C 11.421875 -0.851562 11.585938 -0.796875 11.765625 -0.765625 C 11.953125 -0.734375 12.175781 -0.71875 12.4375 -0.71875 L 12.4375 0 L 7.078125 0 Z M 7.078125 -0.71875 "/></g></g></g><g clip-path="url(#8348573d3f)"><g clip-path="url(#723e74ca8a)"><path fill="#ffffff" d="M 109.398438 194.683594 L 153.496094 194.683594 L 153.496094 238.78125 L 109.398438 238.78125 Z M 109.398438 194.683594 " fill-opacity="1" fill-rule="nonzero"/></g></g><g clip-path="url(#1449d4afbe)"><g clip-path="url(#624b2b18e3)"><path stroke-linecap="butt" transform="matrix(0.752591, 0, 0, 0.752591, 109.397289, 194.682028)" fill="none" stroke-linejoin="miter" d="M 29.399966 0.00208046 C 13.164387 0.00208046 0.00152564 13.159751 0.00152564 29.400521 C 0.00152564 45.6361 13.164387 58.798961 29.399966 58.798961 C 45.635545 58.798961 58.798407 45.6361 58.798407 29.400521 C 58.798407 13.159751 45.635545 0.00208046 29.399966 0.00208046 " stroke="#545454" stroke-width="6" stroke-opacity="1" stroke-miterlimit="4"/></g></g><path stroke-linecap="butt" transform="matrix(-0.651069, 0.368311, -0.369282, -0.652787, 131.997389, 239.759867)" fill="none" stroke-linejoin="miter" d="M -0.00177762 1.498134 L 75.707516 1.500782 " stroke="#545454" stroke-width="3" stroke-opacity="1" stroke-miterlimit="4"/><path stroke-linecap="round" transform="matrix(-1.953208, 1.104932, -1.107847, -1.95836, 81.176294, 267.216897)" fill="none" stroke-linejoin="round" d="M -2.500935 -1.499771 L -0.499866 0.000263621 L -2.500655 1.500346 " stroke="#545454" stroke-width="1" stroke-opacity="1" stroke-miterlimit="4"/><path stroke-linecap="butt" transform="matrix(0.629167, 0.408833, -0.408654, 0.62889, 132.058517, 237.83906)" fill="none" stroke-linejoin="miter" d="M -0.0010825 1.498883 L 69.47967 1.49919 " stroke="#545454" stroke-width="3" stroke-opacity="1" stroke-miterlimit="4"/><path stroke-linecap="round" transform="matrix(1.8875, 1.2265, -1.225961, 1.886669, 176.104227, 267.80169)" fill="none" stroke-linejoin="round" d="M -2.500459 -1.49927 L -0.500347 -0.000272839 L -2.499641 1.500277 " stroke="#545454" stroke-width="1" stroke-opacity="1" stroke-miterlimit="4"/><g clip-path="url(#94f7d651e6)"><g clip-path="url(#4867687d2c)"><path fill="#ffffff" d="M 62.113281 267.785156 L 101.5 267.785156 L 101.5 307.175781 L 62.113281 307.175781 Z M 62.113281 267.785156 " fill-opacity="1" fill-rule="nonzero"/></g></g><g clip-path="url(#26858d44bf)"><g clip-path="url(#fd585362ef)"><path stroke-linecap="butt" transform="matrix(0.756918, 0, 0, 0.756918, 62.111952, 267.786458)" fill="none" stroke-linejoin="miter" d="M 26.259569 -0.0017193 C 11.757907 -0.0017193 0.00175558 11.754432 0.00175558 26.256094 C 0.00175558 40.757756 11.757907 52.513907 26.259569 52.513907 C 40.76123 52.513907 52.517382 40.757756 52.517382 26.256094 C 52.517382 11.754432 40.76123 -0.0017193 26.259569 -0.0017193 " stroke="#545454" stroke-width="6" stroke-opacity="1" stroke-miterlimit="4"/></g></g><g clip-path="url(#b88b7f4b63)"><g clip-path="url(#d93f68ef52)"><path fill="#ffffff" d="M 153.496094 267.785156 L 192.882812 267.785156 L 192.882812 307.175781 L 153.496094 307.175781 Z M 153.496094 267.785156 " fill-opacity="1" fill-rule="nonzero"/></g></g><g clip-path="url(#ff73bb3834)"><g clip-path="url(#08b494df9a)"><path stroke-linecap="butt" transform="matrix(0.756918, 0, 0, 0.756918, 153.495215, 267.786458)" fill="none" stroke-linejoin="miter" d="M 26.258974 -0.0017193 C 11.757312 -0.0017193 0.00116067 11.754432 0.00116067 26.256094 C 0.00116067 40.757756 11.757312 52.513907 26.258974 52.513907 C 40.760636 52.513907 52.516787 40.757756 52.516787 26.256094 C 52.516787 11.754432 40.760636 -0.0017193 26.258974 -0.0017193 " stroke="#545454" stroke-width="6" stroke-opacity="1" stroke-miterlimit="4"/></g></g><g fill="#000000" fill-opacity="1"><g transform="translate(94.342052, 324.709085)"><g><path d="M 5.578125 -4.375 C 6.140625 -4.375 6.582031 -4.628906 6.90625 -5.140625 C 7.226562 -5.660156 7.390625 -6.390625 7.390625 -7.328125 C 7.390625 -8.242188 7.226562 -8.957031 6.90625 -9.46875 C 6.582031 -9.976562 6.128906 -10.234375 5.546875 -10.234375 C 4.960938 -10.234375 4.5 -9.972656 4.15625 -9.453125 C 3.8125 -8.941406 3.640625 -8.238281 3.640625 -7.34375 C 3.640625 -6.445312 3.816406 -5.726562 4.171875 -5.1875 C 4.523438 -4.644531 4.992188 -4.375 5.578125 -4.375 Z M 4.453125 -2 C 4.773438 -1.96875 5.070312 -1.9375 5.34375 -1.90625 C 5.613281 -1.882812 5.878906 -1.859375 6.140625 -1.828125 C 6.410156 -1.804688 6.675781 -1.773438 6.9375 -1.734375 C 7.207031 -1.691406 7.5 -1.648438 7.8125 -1.609375 C 8.789062 -1.460938 9.570312 -1.085938 10.15625 -0.484375 C 10.75 0.117188 11.046875 0.878906 11.046875 1.796875 C 11.046875 2.929688 10.59375 3.796875 9.6875 4.390625 C 8.789062 4.992188 7.488281 5.296875 5.78125 5.296875 C 5.019531 5.296875 4.320312 5.222656 3.6875 5.078125 C 3.0625 4.941406 2.523438 4.75 2.078125 4.5 C 1.628906 4.25 1.28125 3.945312 1.03125 3.59375 C 0.78125 3.25 0.65625 2.863281 0.65625 2.4375 C 0.65625 2.15625 0.703125 1.890625 0.796875 1.640625 C 0.890625 1.398438 1.015625 1.1875 1.171875 1 C 1.335938 0.820312 1.53125 0.675781 1.75 0.5625 C 1.976562 0.457031 2.21875 0.40625 2.46875 0.40625 C 2.925781 0.40625 3.335938 0.546875 3.703125 0.828125 C 3.335938 0.910156 3.039062 1.109375 2.8125 1.421875 C 2.582031 1.742188 2.46875 2.109375 2.46875 2.515625 C 2.46875 3.117188 2.757812 3.582031 3.34375 3.90625 C 3.9375 4.226562 4.773438 4.390625 5.859375 4.390625 C 8.179688 4.390625 9.34375 3.679688 9.34375 2.265625 C 9.34375 1.710938 9.15625 1.253906 8.78125 0.890625 C 8.414062 0.535156 7.984375 0.328125 7.484375 0.265625 C 7.160156 0.222656 6.820312 0.175781 6.46875 0.125 C 6.125 0.0820312 5.785156 0.0390625 5.453125 0 C 5.128906 -0.0390625 4.820312 -0.0703125 4.53125 -0.09375 C 4.25 -0.125 4.019531 -0.15625 3.84375 -0.1875 C 3.082031 -0.269531 2.503906 -0.472656 2.109375 -0.796875 C 1.722656 -1.117188 1.53125 -1.566406 1.53125 -2.140625 C 1.53125 -2.609375 1.722656 -3.023438 2.109375 -3.390625 C 2.503906 -3.765625 3 -4 3.59375 -4.09375 L 3.59375 -4.171875 C 3.300781 -4.296875 3.023438 -4.46875 2.765625 -4.6875 C 2.503906 -4.914062 2.28125 -5.171875 2.09375 -5.453125 C 1.914062 -5.734375 1.769531 -6.039062 1.65625 -6.375 C 1.550781 -6.707031 1.5 -7.050781 1.5 -7.40625 C 1.5 -7.914062 1.597656 -8.390625 1.796875 -8.828125 C 1.992188 -9.265625 2.269531 -9.640625 2.625 -9.953125 C 2.988281 -10.273438 3.414062 -10.523438 3.90625 -10.703125 C 4.394531 -10.890625 4.929688 -10.984375 5.515625 -10.984375 C 6.109375 -10.984375 6.671875 -10.890625 7.203125 -10.703125 C 7.734375 -10.523438 8.1875 -10.257812 8.5625 -9.90625 C 9.019531 -10.289062 9.425781 -10.566406 9.78125 -10.734375 C 10.132812 -10.898438 10.46875 -10.984375 10.78125 -10.984375 C 11.269531 -10.984375 11.660156 -10.867188 11.953125 -10.640625 C 12.242188 -10.421875 12.390625 -10.125 12.390625 -9.75 C 12.390625 -9.519531 12.3125 -9.332031 12.15625 -9.1875 C 12 -9.050781 11.804688 -8.984375 11.578125 -8.984375 C 11.390625 -8.984375 11.234375 -9.019531 11.109375 -9.09375 C 10.984375 -9.164062 10.867188 -9.238281 10.765625 -9.3125 C 10.671875 -9.382812 10.566406 -9.453125 10.453125 -9.515625 C 10.347656 -9.585938 10.210938 -9.625 10.046875 -9.625 C 9.722656 -9.625 9.390625 -9.507812 9.046875 -9.28125 C 9.378906 -8.78125 9.546875 -8.148438 9.546875 -7.390625 C 9.546875 -6.234375 9.1875 -5.328125 8.46875 -4.671875 C 7.75 -4.015625 6.671875 -3.628906 5.234375 -3.515625 C 4.398438 -3.453125 3.820312 -3.363281 3.5 -3.25 C 3.175781 -3.144531 3.015625 -2.953125 3.015625 -2.671875 C 3.015625 -2.453125 3.132812 -2.289062 3.375 -2.1875 C 3.625 -2.082031 3.984375 -2.019531 4.453125 -2 Z M 4.453125 -2 "/></g></g></g><g fill="#000000" fill-opacity="1"><g transform="translate(106.53212, 324.709085)"><g><path d="M 4.515625 -3.234375 C 4.515625 -2.679688 4.523438 -2.238281 4.546875 -1.90625 C 4.578125 -1.582031 4.648438 -1.335938 4.765625 -1.171875 C 4.878906 -1.003906 5.046875 -0.890625 5.265625 -0.828125 C 5.484375 -0.773438 5.789062 -0.738281 6.1875 -0.71875 L 6.1875 0 L 0.765625 0 L 0.765625 -0.71875 C 1.160156 -0.726562 1.472656 -0.765625 1.703125 -0.828125 C 1.941406 -0.890625 2.117188 -1 2.234375 -1.15625 C 2.359375 -1.320312 2.4375 -1.554688 2.46875 -1.859375 C 2.5 -2.160156 2.515625 -2.570312 2.515625 -3.09375 L 2.515625 -5.46875 C 2.515625 -6.394531 2.503906 -7.113281 2.484375 -7.625 C 2.472656 -8.144531 2.40625 -8.523438 2.28125 -8.765625 C 2.164062 -9.015625 1.988281 -9.160156 1.75 -9.203125 C 1.507812 -9.253906 1.171875 -9.28125 0.734375 -9.28125 L 0.734375 -9.984375 L 4.296875 -10.765625 L 4.578125 -8.234375 L 4.65625 -8.234375 C 4.832031 -8.640625 5.050781 -9.007812 5.3125 -9.34375 C 5.582031 -9.6875 5.875 -9.976562 6.1875 -10.21875 C 6.5 -10.457031 6.820312 -10.644531 7.15625 -10.78125 C 7.5 -10.914062 7.847656 -10.984375 8.203125 -10.984375 C 8.628906 -10.984375 8.96875 -10.878906 9.21875 -10.671875 C 9.476562 -10.460938 9.609375 -10.179688 9.609375 -9.828125 C 9.609375 -9.503906 9.503906 -9.25 9.296875 -9.0625 C 9.085938 -8.875 8.796875 -8.78125 8.421875 -8.78125 C 8.203125 -8.78125 8.019531 -8.804688 7.875 -8.859375 C 7.726562 -8.921875 7.59375 -8.984375 7.46875 -9.046875 C 7.351562 -9.109375 7.242188 -9.164062 7.140625 -9.21875 C 7.046875 -9.269531 6.9375 -9.296875 6.8125 -9.296875 C 6.445312 -9.296875 6.082031 -9.0625 5.71875 -8.59375 C 5.351562 -8.125 5.066406 -7.53125 4.859375 -6.8125 C 4.753906 -6.414062 4.671875 -5.96875 4.609375 -5.46875 C 4.546875 -4.976562 4.515625 -4.460938 4.515625 -3.921875 Z M 4.515625 -3.234375 "/></g></g></g><g fill="#000000" fill-opacity="1"><g transform="translate(116.239412, 324.709085)"><g><path d="M 7.09375 -6.015625 C 6.320312 -5.722656 5.664062 -5.429688 5.125 -5.140625 C 4.59375 -4.859375 4.164062 -4.570312 3.84375 -4.28125 C 3.519531 -4 3.285156 -3.71875 3.140625 -3.4375 C 2.992188 -3.15625 2.921875 -2.863281 2.921875 -2.5625 C 2.921875 -2.113281 3.070312 -1.742188 3.375 -1.453125 C 3.675781 -1.171875 4.070312 -1.03125 4.5625 -1.03125 C 4.914062 -1.03125 5.242188 -1.117188 5.546875 -1.296875 C 5.847656 -1.472656 6.113281 -1.710938 6.34375 -2.015625 C 6.570312 -2.328125 6.753906 -2.6875 6.890625 -3.09375 C 7.023438 -3.507812 7.09375 -3.953125 7.09375 -4.421875 Z M 7.09375 -6.890625 L 7.09375 -7.734375 C 7.09375 -9.390625 6.390625 -10.21875 4.984375 -10.21875 C 4.753906 -10.21875 4.554688 -10.195312 4.390625 -10.15625 C 4.234375 -10.113281 4.097656 -10.046875 3.984375 -9.953125 C 3.878906 -9.859375 3.78125 -9.722656 3.6875 -9.546875 C 3.601562 -9.367188 3.519531 -9.148438 3.4375 -8.890625 C 3.289062 -8.492188 3.144531 -8.226562 3 -8.09375 C 2.851562 -7.96875 2.644531 -7.90625 2.375 -7.90625 C 1.695312 -7.90625 1.359375 -8.25 1.359375 -8.9375 C 1.359375 -9.582031 1.703125 -10.082031 2.390625 -10.4375 C 3.085938 -10.800781 4.070312 -10.984375 5.34375 -10.984375 C 6.707031 -10.984375 7.671875 -10.742188 8.234375 -10.265625 C 8.804688 -9.785156 9.09375 -8.96875 9.09375 -7.8125 L 9.09375 -3.25 C 9.09375 -1.707031 9.398438 -0.9375 10.015625 -0.9375 C 10.203125 -0.9375 10.382812 -0.957031 10.5625 -1 C 10.738281 -1.050781 10.882812 -1.179688 11 -1.390625 L 11.296875 -0.890625 C 11.128906 -0.578125 10.828125 -0.316406 10.390625 -0.109375 C 9.960938 0.0976562 9.507812 0.203125 9.03125 0.203125 C 8.4375 0.203125 7.992188 0.015625 7.703125 -0.359375 C 7.410156 -0.742188 7.265625 -1.28125 7.265625 -1.96875 L 7.15625 -1.96875 C 6.800781 -1.300781 6.3125 -0.773438 5.6875 -0.390625 C 5.070312 -0.00390625 4.382812 0.1875 3.625 0.1875 C 2.769531 0.1875 2.097656 -0.03125 1.609375 -0.46875 C 1.117188 -0.90625 0.875 -1.488281 0.875 -2.21875 C 0.875 -2.539062 0.929688 -2.847656 1.046875 -3.140625 C 1.160156 -3.441406 1.347656 -3.726562 1.609375 -4 C 1.867188 -4.28125 2.207031 -4.550781 2.625 -4.8125 C 3.039062 -5.070312 3.554688 -5.335938 4.171875 -5.609375 Z M 7.09375 -6.890625 "/></g></g></g><g fill="#000000" fill-opacity="1"><g transform="translate(127.513699, 324.709085)"><g><path d="M 4.265625 -9.3125 L 4.359375 -9.3125 C 4.785156 -9.832031 5.25 -10.238281 5.75 -10.53125 C 6.257812 -10.832031 6.84375 -10.984375 7.5 -10.984375 C 8.28125 -10.984375 8.988281 -10.84375 9.625 -10.5625 C 10.269531 -10.289062 10.828125 -9.898438 11.296875 -9.390625 C 11.773438 -8.890625 12.144531 -8.296875 12.40625 -7.609375 C 12.675781 -6.929688 12.8125 -6.1875 12.8125 -5.375 C 12.8125 -4.539062 12.675781 -3.78125 12.40625 -3.09375 C 12.132812 -2.414062 11.757812 -1.832031 11.28125 -1.34375 C 10.8125 -0.851562 10.25 -0.472656 9.59375 -0.203125 C 8.945312 0.0664062 8.242188 0.203125 7.484375 0.203125 C 6.859375 0.203125 6.289062 0.0976562 5.78125 -0.109375 C 5.28125 -0.316406 4.804688 -0.660156 4.359375 -1.140625 L 4.359375 1.828125 C 4.359375 2.367188 4.382812 2.800781 4.4375 3.125 C 4.488281 3.457031 4.59375 3.710938 4.75 3.890625 C 4.914062 4.066406 5.148438 4.1875 5.453125 4.25 C 5.765625 4.320312 6.171875 4.363281 6.671875 4.375 L 6.671875 5.09375 L 0.40625 5.09375 L 0.40625 4.375 C 0.8125 4.363281 1.140625 4.320312 1.390625 4.25 C 1.640625 4.1875 1.835938 4.066406 1.984375 3.890625 C 2.128906 3.710938 2.226562 3.46875 2.28125 3.15625 C 2.332031 2.851562 2.359375 2.457031 2.359375 1.96875 L 2.359375 -5.640625 C 2.359375 -6.421875 2.347656 -7.0625 2.328125 -7.5625 C 2.304688 -8.070312 2.269531 -8.421875 2.21875 -8.609375 C 2.144531 -8.929688 1.988281 -9.148438 1.75 -9.265625 C 1.507812 -9.378906 1.046875 -9.4375 0.359375 -9.4375 L 0.359375 -10.125 L 4.265625 -10.90625 Z M 4.875 -8.734375 C 4.707031 -8.460938 4.578125 -8.140625 4.484375 -7.765625 C 4.398438 -7.390625 4.359375 -6.90625 4.359375 -6.3125 L 4.359375 -4.71875 C 4.359375 -4.351562 4.367188 -4.035156 4.390625 -3.765625 C 4.410156 -3.503906 4.4375 -3.28125 4.46875 -3.09375 C 4.507812 -2.90625 4.5625 -2.734375 4.625 -2.578125 C 4.695312 -2.429688 4.789062 -2.289062 4.90625 -2.15625 C 5.21875 -1.71875 5.585938 -1.378906 6.015625 -1.140625 C 6.453125 -0.910156 6.910156 -0.796875 7.390625 -0.796875 C 8.316406 -0.796875 9.066406 -1.1875 9.640625 -1.96875 C 10.222656 -2.757812 10.515625 -3.867188 10.515625 -5.296875 C 10.515625 -5.992188 10.4375 -6.628906 10.28125 -7.203125 C 10.125 -7.785156 9.90625 -8.28125 9.625 -8.6875 C 9.34375 -9.101562 9 -9.425781 8.59375 -9.65625 C 8.195312 -9.894531 7.753906 -10.015625 7.265625 -10.015625 C 6.773438 -10.015625 6.320312 -9.898438 5.90625 -9.671875 C 5.5 -9.453125 5.15625 -9.140625 4.875 -8.734375 Z M 4.875 -8.734375 "/></g></g></g><g fill="#000000" fill-opacity="1"><g transform="translate(141.331838, 324.709085)"><g><path d="M 4.234375 -3.234375 C 4.234375 -2.679688 4.242188 -2.238281 4.265625 -1.90625 C 4.296875 -1.582031 4.367188 -1.335938 4.484375 -1.171875 C 4.597656 -1.003906 4.765625 -0.890625 4.984375 -0.828125 C 5.203125 -0.773438 5.507812 -0.738281 5.90625 -0.71875 L 5.90625 0 L 0.484375 0 L 0.484375 -0.71875 C 0.878906 -0.738281 1.191406 -0.773438 1.421875 -0.828125 C 1.648438 -0.890625 1.828125 -1 1.953125 -1.15625 C 2.078125 -1.320312 2.15625 -1.554688 2.1875 -1.859375 C 2.21875 -2.160156 2.234375 -2.570312 2.234375 -3.09375 L 2.234375 -11.609375 C 2.234375 -12.410156 2.222656 -13.046875 2.203125 -13.515625 C 2.179688 -13.992188 2.144531 -14.359375 2.09375 -14.609375 C 2.070312 -14.765625 2.03125 -14.894531 1.96875 -15 C 1.90625 -15.101562 1.8125 -15.1875 1.6875 -15.25 C 1.5625 -15.3125 1.394531 -15.351562 1.1875 -15.375 C 0.988281 -15.40625 0.742188 -15.421875 0.453125 -15.421875 L 0.453125 -16.109375 L 4.1875 -16.890625 L 4.1875 -9.140625 L 4.265625 -9.140625 C 4.472656 -9.410156 4.726562 -9.65625 5.03125 -9.875 C 5.34375 -10.101562 5.671875 -10.296875 6.015625 -10.453125 C 6.367188 -10.617188 6.738281 -10.75 7.125 -10.84375 C 7.507812 -10.9375 7.890625 -10.984375 8.265625 -10.984375 C 8.890625 -10.984375 9.460938 -10.875 9.984375 -10.65625 C 10.503906 -10.4375 10.90625 -10.144531 11.1875 -9.78125 C 11.414062 -9.46875 11.582031 -9.054688 11.6875 -8.546875 C 11.800781 -8.046875 11.859375 -7.359375 11.859375 -6.484375 L 11.859375 -3.234375 C 11.859375 -2.679688 11.867188 -2.242188 11.890625 -1.921875 C 11.921875 -1.597656 11.992188 -1.347656 12.109375 -1.171875 C 12.222656 -1.003906 12.390625 -0.890625 12.609375 -0.828125 C 12.828125 -0.773438 13.132812 -0.738281 13.53125 -0.71875 L 13.53125 0 L 8.140625 0 L 8.140625 -0.71875 C 8.515625 -0.726562 8.816406 -0.765625 9.046875 -0.828125 C 9.285156 -0.890625 9.460938 -1 9.578125 -1.15625 C 9.691406 -1.320312 9.765625 -1.554688 9.796875 -1.859375 C 9.828125 -2.160156 9.84375 -2.570312 9.84375 -3.09375 L 9.84375 -5.65625 C 9.84375 -7.175781 9.664062 -8.253906 9.3125 -8.890625 C 8.957031 -9.535156 8.367188 -9.859375 7.546875 -9.859375 C 6.910156 -9.859375 6.332031 -9.695312 5.8125 -9.375 C 5.289062 -9.050781 4.878906 -8.601562 4.578125 -8.03125 C 4.503906 -7.882812 4.441406 -7.742188 4.390625 -7.609375 C 4.347656 -7.484375 4.3125 -7.335938 4.28125 -7.171875 C 4.257812 -7.015625 4.242188 -6.832031 4.234375 -6.625 C 4.234375 -6.414062 4.234375 -6.15625 4.234375 -5.84375 Z M 4.234375 -3.234375 "/></g></g></g><path stroke-linecap="butt" transform="matrix(0.751554, 0, 0, 0.75, 292.548412, 305.268467)" fill="none" stroke-linejoin="miter" d="M -0.00204575 1.501419 L 67.862532 1.501419 " stroke="#545454" stroke-width="3" stroke-opacity="1" stroke-miterlimit="4"/><path stroke-linecap="butt" transform="matrix(0.000000000000000046, -0.752887, 0.75, 0.000000000000000046, 290.887867, 307.168926)" fill="none" stroke-linejoin="miter" d="M 0.00127174 1.498469 L 109.594973 1.498469 " stroke="#545454" stroke-width="3" stroke-opacity="1" stroke-miterlimit="4"/><path stroke-linecap="butt" transform="matrix(0.00783694, 0.751046, -0.749959, 0.0078256, 342.335987, 224.973384)" fill="none" stroke-linejoin="miter" d="M -0.000996078 1.500137 L 107.859003 1.502194 " stroke="#545454" stroke-width="3" stroke-opacity="1" stroke-miterlimit="4"/><g fill="#000000" fill-opacity="1"><g transform="translate(286.054234, 324.709085)"><g><path d="M 9.4375 -6.515625 C 9.4375 -7.015625 9.359375 -7.476562 9.203125 -7.90625 C 9.054688 -8.332031 8.847656 -8.695312 8.578125 -9 C 8.304688 -9.300781 7.988281 -9.539062 7.625 -9.71875 C 7.257812 -9.894531 6.867188 -9.984375 6.453125 -9.984375 C 5.960938 -9.984375 5.523438 -9.875 5.140625 -9.65625 C 4.753906 -9.445312 4.421875 -9.140625 4.140625 -8.734375 C 3.859375 -8.335938 3.644531 -7.851562 3.5 -7.28125 C 3.351562 -6.707031 3.28125 -6.078125 3.28125 -5.390625 C 3.28125 -4.679688 3.351562 -4.039062 3.5 -3.46875 C 3.644531 -2.90625 3.859375 -2.421875 4.140625 -2.015625 C 4.421875 -1.617188 4.753906 -1.3125 5.140625 -1.09375 C 5.535156 -0.875 5.976562 -0.765625 6.46875 -0.765625 C 7.019531 -0.765625 7.519531 -0.894531 7.96875 -1.15625 C 8.414062 -1.414062 8.753906 -1.785156 8.984375 -2.265625 C 9.285156 -2.859375 9.4375 -3.675781 9.4375 -4.71875 Z M 9.5 -1.46875 L 9.421875 -1.46875 C 8.941406 -0.863281 8.445312 -0.429688 7.9375 -0.171875 C 7.4375 0.078125 6.828125 0.203125 6.109375 0.203125 C 5.347656 0.203125 4.65625 0.0703125 4.03125 -0.1875 C 3.40625 -0.457031 2.863281 -0.832031 2.40625 -1.3125 C 1.957031 -1.789062 1.601562 -2.363281 1.34375 -3.03125 C 1.09375 -3.707031 0.96875 -4.445312 0.96875 -5.25 C 0.96875 -6.050781 1.101562 -6.800781 1.375 -7.5 C 1.65625 -8.195312 2.03125 -8.800781 2.5 -9.3125 C 2.976562 -9.832031 3.535156 -10.238281 4.171875 -10.53125 C 4.804688 -10.832031 5.488281 -10.984375 6.21875 -10.984375 C 6.957031 -10.984375 7.664062 -10.832031 8.34375 -10.53125 C 9.019531 -10.238281 9.582031 -9.84375 10.03125 -9.34375 L 10.921875 -10.734375 L 11.4375 -10.734375 L 11.4375 1.828125 C 11.4375 2.398438 11.453125 2.847656 11.484375 3.171875 C 11.515625 3.492188 11.601562 3.742188 11.75 3.921875 C 11.894531 4.097656 12.101562 4.210938 12.375 4.265625 C 12.65625 4.328125 13.039062 4.363281 13.53125 4.375 L 13.53125 5.09375 L 7.328125 5.09375 L 7.328125 4.375 C 7.753906 4.363281 8.109375 4.316406 8.390625 4.234375 C 8.671875 4.160156 8.890625 4.03125 9.046875 3.84375 C 9.210938 3.664062 9.328125 3.425781 9.390625 3.125 C 9.460938 2.820312 9.5 2.4375 9.5 1.96875 Z M 9.5 -1.46875 "/></g></g></g><g fill="#000000" fill-opacity="1"><g transform="translate(299.343255, 324.709085)"><g><path d="M 9.421875 -7.53125 C 9.421875 -8.082031 9.40625 -8.515625 9.375 -8.828125 C 9.351562 -9.148438 9.28125 -9.394531 9.15625 -9.5625 C 9.039062 -9.738281 8.875 -9.859375 8.65625 -9.921875 C 8.4375 -9.984375 8.128906 -10.03125 7.734375 -10.0625 L 7.734375 -10.78125 L 11.40625 -10.78125 L 11.40625 -4.53125 C 11.40625 -3.757812 11.414062 -3.128906 11.4375 -2.640625 C 11.457031 -2.148438 11.488281 -1.785156 11.53125 -1.546875 C 11.5625 -1.367188 11.609375 -1.226562 11.671875 -1.125 C 11.734375 -1.019531 11.820312 -0.9375 11.9375 -0.875 C 12.0625 -0.820312 12.222656 -0.785156 12.421875 -0.765625 C 12.617188 -0.742188 12.875 -0.734375 13.1875 -0.734375 L 13.1875 -0.015625 L 9.828125 0.21875 L 9.609375 -2.21875 L 9.515625 -2.21875 C 9.003906 -1.375 8.410156 -0.757812 7.734375 -0.375 C 7.066406 0.0078125 6.367188 0.203125 5.640625 0.203125 C 5.066406 0.203125 4.507812 0.09375 3.96875 -0.125 C 3.4375 -0.34375 3.035156 -0.632812 2.765625 -1 C 2.535156 -1.289062 2.367188 -1.703125 2.265625 -2.234375 C 2.160156 -2.765625 2.109375 -3.453125 2.109375 -4.296875 L 2.109375 -7.53125 C 2.109375 -8.082031 2.09375 -8.515625 2.0625 -8.828125 C 2.039062 -9.148438 1.972656 -9.394531 1.859375 -9.5625 C 1.742188 -9.738281 1.570312 -9.859375 1.34375 -9.921875 C 1.125 -9.984375 0.816406 -10.03125 0.421875 -10.0625 L 0.421875 -10.78125 L 4.109375 -10.78125 L 4.109375 -5.234375 C 4.109375 -3.753906 4.28125 -2.679688 4.625 -2.015625 C 4.96875 -1.347656 5.519531 -1.015625 6.28125 -1.015625 C 7.476562 -1.015625 8.410156 -1.796875 9.078125 -3.359375 C 9.140625 -3.515625 9.191406 -3.660156 9.234375 -3.796875 C 9.273438 -3.929688 9.304688 -4.082031 9.328125 -4.25 C 9.359375 -4.414062 9.378906 -4.597656 9.390625 -4.796875 C 9.410156 -5.003906 9.421875 -5.25 9.421875 -5.53125 Z M 9.421875 -7.53125 "/></g></g></g><g fill="#000000" fill-opacity="1"><g transform="translate(312.978223, 324.709085)"><g><path d="M 10.625 -1.890625 C 9.46875 -0.492188 8.035156 0.203125 6.328125 0.203125 C 5.523438 0.203125 4.796875 0.0703125 4.140625 -0.1875 C 3.492188 -0.457031 2.9375 -0.832031 2.46875 -1.3125 C 2 -1.789062 1.632812 -2.363281 1.375 -3.03125 C 1.125 -3.707031 1 -4.453125 1 -5.265625 C 1 -6.097656 1.132812 -6.863281 1.40625 -7.5625 C 1.675781 -8.269531 2.054688 -8.875 2.546875 -9.375 C 3.046875 -9.875 3.632812 -10.265625 4.3125 -10.546875 C 5 -10.835938 5.753906 -10.984375 6.578125 -10.984375 C 7.890625 -10.984375 8.90625 -10.625 9.625 -9.90625 C 10.34375 -9.195312 10.703125 -8.179688 10.703125 -6.859375 C 10.703125 -6.671875 10.664062 -6.554688 10.59375 -6.515625 C 10.519531 -6.472656 10.34375 -6.453125 10.0625 -6.453125 L 3.375 -6.453125 C 3.351562 -6.335938 3.332031 -6.203125 3.3125 -6.046875 C 3.300781 -5.890625 3.296875 -5.71875 3.296875 -5.53125 C 3.296875 -4.820312 3.378906 -4.179688 3.546875 -3.609375 C 3.710938 -3.035156 3.957031 -2.546875 4.28125 -2.140625 C 4.601562 -1.734375 4.984375 -1.414062 5.421875 -1.1875 C 5.859375 -0.96875 6.347656 -0.859375 6.890625 -0.859375 C 7.460938 -0.859375 7.992188 -0.984375 8.484375 -1.234375 C 8.972656 -1.484375 9.472656 -1.894531 9.984375 -2.46875 Z M 7.265625 -7.390625 C 7.535156 -7.390625 7.75 -7.394531 7.90625 -7.40625 C 8.070312 -7.414062 8.195312 -7.441406 8.28125 -7.484375 C 8.363281 -7.523438 8.414062 -7.582031 8.4375 -7.65625 C 8.46875 -7.726562 8.484375 -7.828125 8.484375 -7.953125 C 8.484375 -8.578125 8.28125 -9.078125 7.875 -9.453125 C 7.476562 -9.828125 6.9375 -10.015625 6.25 -10.015625 C 4.78125 -10.015625 3.867188 -9.140625 3.515625 -7.390625 Z M 7.265625 -7.390625 "/></g></g></g><g fill="#000000" fill-opacity="1"><g transform="translate(324.639173, 324.709085)"><g><path d="M 9.421875 -7.53125 C 9.421875 -8.082031 9.40625 -8.515625 9.375 -8.828125 C 9.351562 -9.148438 9.28125 -9.394531 9.15625 -9.5625 C 9.039062 -9.738281 8.875 -9.859375 8.65625 -9.921875 C 8.4375 -9.984375 8.128906 -10.03125 7.734375 -10.0625 L 7.734375 -10.78125 L 11.40625 -10.78125 L 11.40625 -4.53125 C 11.40625 -3.757812 11.414062 -3.128906 11.4375 -2.640625 C 11.457031 -2.148438 11.488281 -1.785156 11.53125 -1.546875 C 11.5625 -1.367188 11.609375 -1.226562 11.671875 -1.125 C 11.734375 -1.019531 11.820312 -0.9375 11.9375 -0.875 C 12.0625 -0.820312 12.222656 -0.785156 12.421875 -0.765625 C 12.617188 -0.742188 12.875 -0.734375 13.1875 -0.734375 L 13.1875 -0.015625 L 9.828125 0.21875 L 9.609375 -2.21875 L 9.515625 -2.21875 C 9.003906 -1.375 8.410156 -0.757812 7.734375 -0.375 C 7.066406 0.0078125 6.367188 0.203125 5.640625 0.203125 C 5.066406 0.203125 4.507812 0.09375 3.96875 -0.125 C 3.4375 -0.34375 3.035156 -0.632812 2.765625 -1 C 2.535156 -1.289062 2.367188 -1.703125 2.265625 -2.234375 C 2.160156 -2.765625 2.109375 -3.453125 2.109375 -4.296875 L 2.109375 -7.53125 C 2.109375 -8.082031 2.09375 -8.515625 2.0625 -8.828125 C 2.039062 -9.148438 1.972656 -9.394531 1.859375 -9.5625 C 1.742188 -9.738281 1.570312 -9.859375 1.34375 -9.921875 C 1.125 -9.984375 0.816406 -10.03125 0.421875 -10.0625 L 0.421875 -10.78125 L 4.109375 -10.78125 L 4.109375 -5.234375 C 4.109375 -3.753906 4.28125 -2.679688 4.625 -2.015625 C 4.96875 -1.347656 5.519531 -1.015625 6.28125 -1.015625 C 7.476562 -1.015625 8.410156 -1.796875 9.078125 -3.359375 C 9.140625 -3.515625 9.191406 -3.660156 9.234375 -3.796875 C 9.273438 -3.929688 9.304688 -4.082031 9.328125 -4.25 C 9.359375 -4.414062 9.378906 -4.597656 9.390625 -4.796875 C 9.410156 -5.003906 9.421875 -5.25 9.421875 -5.53125 Z M 9.421875 -7.53125 "/></g></g></g><g fill="#000000" fill-opacity="1"><g transform="translate(338.274141, 324.709085)"><g><path d="M 10.625 -1.890625 C 9.46875 -0.492188 8.035156 0.203125 6.328125 0.203125 C 5.523438 0.203125 4.796875 0.0703125 4.140625 -0.1875 C 3.492188 -0.457031 2.9375 -0.832031 2.46875 -1.3125 C 2 -1.789062 1.632812 -2.363281 1.375 -3.03125 C 1.125 -3.707031 1 -4.453125 1 -5.265625 C 1 -6.097656 1.132812 -6.863281 1.40625 -7.5625 C 1.675781 -8.269531 2.054688 -8.875 2.546875 -9.375 C 3.046875 -9.875 3.632812 -10.265625 4.3125 -10.546875 C 5 -10.835938 5.753906 -10.984375 6.578125 -10.984375 C 7.890625 -10.984375 8.90625 -10.625 9.625 -9.90625 C 10.34375 -9.195312 10.703125 -8.179688 10.703125 -6.859375 C 10.703125 -6.671875 10.664062 -6.554688 10.59375 -6.515625 C 10.519531 -6.472656 10.34375 -6.453125 10.0625 -6.453125 L 3.375 -6.453125 C 3.351562 -6.335938 3.332031 -6.203125 3.3125 -6.046875 C 3.300781 -5.890625 3.296875 -5.71875 3.296875 -5.53125 C 3.296875 -4.820312 3.378906 -4.179688 3.546875 -3.609375 C 3.710938 -3.035156 3.957031 -2.546875 4.28125 -2.140625 C 4.601562 -1.734375 4.984375 -1.414062 5.421875 -1.1875 C 5.859375 -0.96875 6.347656 -0.859375 6.890625 -0.859375 C 7.460938 -0.859375 7.992188 -0.984375 8.484375 -1.234375 C 8.972656 -1.484375 9.472656 -1.894531 9.984375 -2.46875 Z M 7.265625 -7.390625 C 7.535156 -7.390625 7.75 -7.394531 7.90625 -7.40625 C 8.070312 -7.414062 8.195312 -7.441406 8.28125 -7.484375 C 8.363281 -7.523438 8.414062 -7.582031 8.4375 -7.65625 C 8.46875 -7.726562 8.484375 -7.828125 8.484375 -7.953125 C 8.484375 -8.578125 8.28125 -9.078125 7.875 -9.453125 C 7.476562 -9.828125 6.9375 -10.015625 6.25 -10.015625 C 4.78125 -10.015625 3.867188 -9.140625 3.515625 -7.390625 Z M 7.265625 -7.390625 "/></g></g></g></svg>